<mxfile host="Electron" agent="Mozilla/5.0 (Windows NT 10.0; Win64; x64) AppleWebKit/537.36 (KHTML, like Gecko) draw.io/25.0.1 Chrome/128.0.6613.186 Electron/32.2.6 Safari/537.36" version="25.0.1">
	<diagram name="Page-1" id="49720d0a7fa6441ca2be762722d7cb8b">
		<mxGraphModel dx="2074" dy="1196" grid="1" gridSize="10" guides="1" tooltips="1" connect="1" arrows="1" fold="1" page="1" pageScale="1" pageWidth="850" pageHeight="1100" math="0" shadow="0">
			<root>
				<mxCell id="0" />
				<mxCell id="1" parent="0" />
				<mxCell value="" style="rounded=0;whiteSpace=wrap;html=1;" id="fca97c239a7c4021b8962f847a51ade6" parent="1" vertex="1">
					<mxGeometry x="0" y="0" width="754" height="735" as="geometry" />
				</mxCell>
				<mxCell value="" style="rounded=0;whiteSpace=wrap;html=1;;fillColor=#dae8fc;strokeColor=#6c8ebf" id="a75f3680336e4ed981c753bde7fdf657" parent="1" vertex="1">
					<mxGeometry x="50" y="50" width="654" height="635" as="geometry" />
				</mxCell>
				<mxCell value="" style="rounded=0;whiteSpace=wrap;html=1;;fillColor=#7EA6E0;strokeColor=#6c8ebf;opacity=50;" id="71d69089a1a74593bdb9dace698dc519" parent="a75f3680336e4ed981c753bde7fdf657" vertex="1">
					<mxGeometry x="50" y="50" width="554" height="535" as="geometry" />
				</mxCell>
				<mxCell value="" style="rounded=0;whiteSpace=wrap;html=1;;rounded=0;whiteSpace=wrap;html=1;dashed=1;opacity=50;" id="995121082b194737b3ccb7987a440602" parent="71d69089a1a74593bdb9dace698dc519" vertex="1">
					<mxGeometry x="169" y="150" width="335" height="335" as="geometry" />
				</mxCell>
				<mxCell connectable="0" id="a244a4b3b87d4bafbd82701ae67ec0bf" parent="71d69089a1a74593bdb9dace698dc519" vertex="1" value="" style="group">
					<mxGeometry x="50" y="150" width="69" height="64" as="geometry" />
				</mxCell>
				<mxCell id="a43abfff52c540ab8f510b1c1c0bc131" parent="995121082b194737b3ccb7987a440602" vertex="1" style="shadow=0;dashed=0;html=1;strokeColor=none;fillColor=#4495D1;labelPosition=center;verticalLabelPosition=bottom;verticalAlign=top;align=center;outlineConnect=0;shape=mxgraph.veeam.dns;" value="example-record-2">
					<mxGeometry x="50" y="240" width="45" height="45" as="geometry" />
				</mxCell>
				<mxCell value="example-private-dns-zone" id="e9c7acb199044c058568c73372a28b66" parent="995121082b194737b3ccb7987a440602" vertex="1" style="image;aspect=fixed;html=1;points=[];align=center;fontSize=12;image=img/lib/azure2/networking/DNS_Zones.svg;labelBackgroundColor=none;">
					<mxGeometry x="-16" y="319" width="32" height="32" as="geometry" />
				</mxCell>
				<mxCell vertex="1" style="image;aspect=fixed;html=1;points=[];align=center;fontSize=12;image=img/lib/azure2/compute/VM_Scale_Sets.svg;labelBackgroundColor=none;" value="example-vmss" id="7870cca9fac24d54a67062feb5bff7ba" parent="71d69089a1a74593bdb9dace698dc519">
					<mxGeometry x="150" y="50" width="50" height="50" as="geometry" />
				</mxCell>
				<mxCell value="example-record-1" id="781b6b843d114e5bb777e7d1848e774a" parent="995121082b194737b3ccb7987a440602" vertex="1" style="shadow=0;dashed=0;html=1;strokeColor=none;fillColor=#4495D1;labelPosition=center;verticalLabelPosition=bottom;verticalAlign=top;align=center;outlineConnect=0;shape=mxgraph.veeam.dns;">
					<mxGeometry x="50" y="50" width="45" height="45" as="geometry" />
				</mxCell>
				<mxCell vertex="1" style="shadow=0;dashed=0;html=1;strokeColor=none;fillColor=#4495D1;labelPosition=center;verticalLabelPosition=bottom;verticalAlign=top;align=center;outlineConnect=0;shape=mxgraph.veeam.dns;" value="example-record-4" id="5fc9b66f36704508aa156f6c834428bc" parent="995121082b194737b3ccb7987a440602">
					<mxGeometry x="145" y="50" width="45" height="45" as="geometry" />
				</mxCell>
				<mxCell vertex="1" style="shadow=0;dashed=0;html=1;strokeColor=none;fillColor=#4495D1;labelPosition=center;verticalLabelPosition=bottom;verticalAlign=top;align=center;outlineConnect=0;shape=mxgraph.veeam.dns;" value="example-record-5" id="0e100fa818fd4f84b201747a06f74857" parent="995121082b194737b3ccb7987a440602">
					<mxGeometry x="240" y="50" width="45" height="45" as="geometry" />
				</mxCell>
				<mxCell style="shadow=0;dashed=0;html=1;strokeColor=none;fillColor=#4495D1;labelPosition=center;verticalLabelPosition=bottom;verticalAlign=top;align=center;outlineConnect=0;shape=mxgraph.veeam.dns;" value="example-record-6" id="a9b9cf4abeab4ac69863dcbbaa6db135" parent="995121082b194737b3ccb7987a440602" vertex="1">
					<mxGeometry x="50" y="145" width="45" height="45" as="geometry" />
				</mxCell>
				<mxCell id="e8dfb443020949ce8f7b3c5e4199396c" parent="71d69089a1a74593bdb9dace698dc519" vertex="1" style="image;aspect=fixed;html=1;points=[];align=center;fontSize=12;image=img/lib/azure2/compute/VM_Scale_Sets.svg;labelBackgroundColor=none;" value="example-vmss-1">
					<mxGeometry x="50" y="50" width="50" height="50" as="geometry" />
				</mxCell>
				<mxCell style="image;aspect=fixed;html=1;points=[];align=center;fontSize=12;image=img/lib/azure2/networking/Virtual_Networks.svg;labelBackgroundColor=none;" value="example-vnet/21" id="111cd68de13846619f3a766837f67e69" parent="a75f3680336e4ed981c753bde7fdf657" vertex="1">
					<mxGeometry x="-33" y="615" width="67" height="40" as="geometry" />
				</mxCell>
				<mxCell parent="fca97c239a7c4021b8962f847a51ade6" vertex="1" style="image;aspect=fixed;html=1;points=[];align=center;fontSize=12;image=img/lib/azure2/general/Subscriptions.svg;labelBackgroundColor=none;" value="example-subscription" id="abe94179c76a42f192e409cc957e3403">
					<mxGeometry x="-34" y="-34" width="68" height="68" as="geometry" />
				</mxCell>
				<mxCell parent="995121082b194737b3ccb7987a440602" vertex="1" style="shadow=0;dashed=0;html=1;strokeColor=none;fillColor=#4495D1;labelPosition=center;verticalLabelPosition=bottom;verticalAlign=top;align=center;outlineConnect=0;shape=mxgraph.veeam.dns;" value="example-record-7" id="199104472f4b4b85b4faf220cd0d71e2">
					<mxGeometry x="145" y="145" width="45" height="45" as="geometry" />
				</mxCell>
				<mxCell style="image;aspect=fixed;html=1;points=[];align=center;fontSize=12;image=img/lib/azure2/compute/Virtual_Machine.svg;labelBackgroundColor=none;" value="example-vm" id="166f23198d584f65b54a3be3905013ac" parent="a244a4b3b87d4bafbd82701ae67ec0bf" vertex="1">
					<mxGeometry x="0" y="0" width="69" height="64" as="geometry" />
				</mxCell>
				<mxCell vertex="1" style="image;aspect=fixed;html=1;points=[];align=center;fontSize=12;image=img/lib/azure2/networking/Subnet.svg;labelBackgroundColor=none;" value="example-snet/22" id="11ea80ee400943acbb413dde3be518c9" parent="71d69089a1a74593bdb9dace698dc519">
					<mxGeometry x="-34" y="-20" width="68" height="41" as="geometry" />
				</mxCell>
				<mxCell style="shadow=0;dashed=0;html=1;strokeColor=none;fillColor=#4495D1;labelPosition=center;verticalLabelPosition=bottom;verticalAlign=top;align=center;outlineConnect=0;shape=mxgraph.veeam.dns;" value="example-record-3" id="72b8dab0559a43a18f4ee6f89ab07787" parent="995121082b194737b3ccb7987a440602" vertex="1">
					<mxGeometry x="240" y="145" width="45" height="45" as="geometry" />
				</mxCell>
				<mxCell style="image;aspect=fixed;html=1;points=[];align=center;fontSize=12;image=img/lib/azure2/networking/Network_Interfaces.svg;labelBackgroundColor=none;" value="" id="2a699c13980b4daf9e1b2c49ba07fdfd" parent="a244a4b3b87d4bafbd82701ae67ec0bf" vertex="1">
					<mxGeometry x="52" y="-15" width="34" height="30" as="geometry" />
				</mxCell>
			</root>
		</mxGraphModel>
	</diagram>
</mxfile>
